<svg width="102" height="90" viewBox="0 0 102 90" fill="none" xmlns="http://www.w3.org/2000/svg">
<path d="M85.4658 34.7174C85.4662 34.7702 85.4509 34.8219 85.4217 34.866C85.3926 34.91 85.3509 34.9445 85.3021 34.9649C85.2533 34.9853 85.1995 34.9907 85.1475 34.9805C85.0956 34.9703 85.0479 34.9449 85.0104 34.9076C84.973 34.8703 84.9476 34.8227 84.9373 34.7709C84.9271 34.7191 84.9326 34.6654 84.953 34.6168C84.9735 34.5681 85.008 34.5265 85.0522 34.4975C85.0964 34.4684 85.1482 34.4531 85.2012 34.4535C85.2712 34.4541 85.3382 34.4821 85.3877 34.5314C85.4372 34.5808 85.4652 34.6476 85.4658 34.7174Z" fill="#263238"/>
</svg>
