<svg width="120" height="90" viewBox="0 0 120 90" fill="none" xmlns="http://www.w3.org/2000/svg">
<path d="M25.0936 11.1998C31.792 -3.07901 55.5856 -1.06628 64.768 8.97572C73.9504 19.0177 76.936 25.4522 85.2184 21.7054C93.5008 17.9585 104.063 18.9577 104.658 30.8731C105.254 42.7885 95.5696 56.8704 80.1592 61.0375C64.7488 65.2047 64.7608 79.9543 44.3752 76.9784C33.2608 75.3548 33.0088 63.3217 34.5784 53.3685C36.148 43.4154 17.3224 27.7579 25.0936 11.1998Z" fill="#407BFF"/>
<path opacity="0.9" d="M25.0936 11.1998C31.792 -3.07901 55.5856 -1.06628 64.768 8.97572C73.9504 19.0177 76.936 25.4522 85.2184 21.7054C93.5008 17.9585 104.063 18.9577 104.658 30.8731C105.254 42.7885 95.5696 56.8704 80.1592 61.0375C64.7488 65.2047 64.7608 79.9543 44.3752 76.9784C33.2608 75.3548 33.0088 63.3217 34.5784 53.3685C36.148 43.4154 17.3224 27.7579 25.0936 11.1998Z" fill="white"/>
<path d="M60.0004 89.4821C85.7002 89.4821 106.534 88.2649 106.534 86.7633C106.534 85.2617 85.7002 84.0444 60.0004 84.0444C34.3006 84.0444 13.4668 85.2617 13.4668 86.7633C13.4668 88.2649 34.3006 89.4821 60.0004 89.4821Z" fill="#F5F5F5"/>
<path d="M95.7602 87.2699H53.3858C53.1312 87.2699 52.887 87.1687 52.707 86.9885C52.5269 86.8083 52.4258 86.564 52.4258 86.3092V57.2352L72.7274 41.8635C73.09 41.5879 73.5314 41.4359 73.9867 41.4299C74.4419 41.4238 74.8872 41.564 75.257 41.8299L96.7202 57.2352V86.3164C96.7183 86.5699 96.6163 86.8124 96.4365 86.9911C96.2566 87.1697 96.0136 87.2699 95.7602 87.2699Z" fill="#407BFF"/>
<path opacity="0.2" d="M95.7602 87.2699H53.3858C53.1312 87.2699 52.887 87.1687 52.707 86.9885C52.5269 86.8083 52.4258 86.564 52.4258 86.3092V57.2352L72.7274 41.8635C73.09 41.5879 73.5314 41.4359 73.9867 41.4299C74.4419 41.4238 74.8872 41.564 75.257 41.8299L96.7202 57.2352V86.3164C96.7183 86.5699 96.6163 86.8124 96.4365 86.9911C96.2566 87.1697 96.0136 87.2699 95.7602 87.2699Z" fill="black"/>
<path d="M88.2578 73.5798H58.2578C58.6266 73.3396 58.9295 73.011 59.1391 72.6239C59.3487 72.2367 59.4582 71.8033 59.4578 71.3629V26.2928C59.4582 25.8199 59.5941 25.357 59.8493 24.959C60.1045 24.561 60.4684 24.2445 60.8978 24.0471H90.8978C90.4684 24.2445 90.1045 24.561 89.8493 24.959C89.5941 25.357 89.4582 25.8199 89.4578 26.2928V71.3629C89.4582 71.8033 89.3487 72.2367 89.1391 72.6239C88.9295 73.011 88.6266 73.3396 88.2578 73.5798Z" fill="#407BFF"/>
<path opacity="0.7" d="M88.2578 73.5798H58.2578C58.6266 73.3396 58.9295 73.011 59.1391 72.6239C59.3487 72.2367 59.4582 71.8033 59.4578 71.3629V26.2928C59.4582 25.8199 59.5941 25.357 59.8493 24.959C60.1045 24.561 60.4684 24.2445 60.8978 24.0471H90.8978C90.4684 24.2445 90.1045 24.561 89.8493 24.959C89.5941 25.357 89.4582 25.8199 89.4578 26.2928V71.3629C89.4582 71.8033 89.3487 72.2367 89.1391 72.6239C88.9295 73.011 88.6266 73.3396 88.2578 73.5798Z" fill="white"/>
<path d="M96.7202 57.2354V86.319C96.7182 86.5544 96.6297 86.7808 96.4718 86.9552C96.3138 87.1296 96.0974 87.24 95.8635 87.2653H95.7675H53.3859H53.2875C53.0546 87.2389 52.8393 87.1281 52.6823 86.9537C52.5254 86.7794 52.4376 86.5536 52.4355 86.319V57.2354L71.3019 70.2676L72.334 70.9882L73.9899 72.1338L75.7395 70.9882L76.8291 70.2676L96.7203 57.2354Z" fill="#407BFF"/>
<path opacity="0.2" d="M96.7209 85.9394V86.2252C96.7292 86.473 96.6467 86.7153 96.4889 86.9064C96.3311 87.0975 96.1089 87.2243 95.8641 87.2628H95.7681H53.3865H53.2881C53.0443 87.2232 52.8232 87.096 52.6664 86.905C52.5096 86.714 52.4277 86.4723 52.4361 86.2252V85.937L71.3025 70.2651L72.3345 70.9857L73.9905 72.1314L75.7401 70.9857L76.8297 70.2651L96.7209 85.9394Z" fill="black"/>
<path d="M96.7202 86.0569V86.3187C96.7202 86.5735 96.619 86.8179 96.439 86.9981C96.259 87.1782 96.0148 87.2795 95.7602 87.2795H53.3858C53.1312 87.2795 52.887 87.1782 52.707 86.9981C52.5269 86.8179 52.4258 86.5735 52.4258 86.3187V86.0569L72.3242 70.9807L72.7274 70.6757C73.0902 70.4004 73.5315 70.2487 73.9867 70.2426C74.4419 70.2366 74.887 70.3765 75.257 70.6421L75.737 70.9807L96.7202 86.0569Z" fill="#407BFF"/>
<path d="M25.292 87.27H27.1016V48.5239H25.292V87.27Z" fill="#263238"/>
<path d="M23.8216 42.3342H29.3416C30.0195 42.3342 30.6696 42.6037 31.149 43.0834C31.6283 43.5631 31.8976 44.2138 31.8976 44.8922V49.0545H21.2656V44.8922C21.2656 44.2138 21.5349 43.5631 22.0143 43.0834C22.4936 42.6037 23.1437 42.3342 23.8216 42.3342Z" fill="#407BFF"/>
<path opacity="0.4" d="M29.4032 42.3342H29.5832C30.1942 42.3342 30.7803 42.5772 31.2123 43.0096C31.6444 43.442 31.8872 44.0285 31.8872 44.64V49.0545H27.1016V44.6376C27.1022 44.0269 27.3449 43.4414 27.7764 43.0096C28.2079 42.5777 28.7929 42.3349 29.4032 42.3342Z" fill="black"/>
<path d="M27.1016 48.9346H31.8872L33.4592 51.6174C33.9392 52.4388 33.26 53.1041 31.9376 53.1041C30.6176 53.1041 29.156 52.4388 28.6736 51.6174L27.1016 48.9346Z" fill="#407BFF"/>
<path opacity="0.2" d="M27.1016 48.9346H31.8872L33.4592 51.6174C33.9392 52.4388 33.26 53.1041 31.9376 53.1041C30.6176 53.1041 29.156 52.4388 28.6736 51.6174L27.1016 48.9346Z" fill="black"/>
<path d="M25.4396 45.7281V40.9773H24.8516V41.4745H25.1732V45.7281C25.0742 45.7921 24.9943 45.8817 24.9419 45.9874C24.8895 46.0931 24.8666 46.2109 24.8756 46.3285C24.8756 46.6792 25.07 46.9626 25.3052 46.9626C25.5404 46.9626 25.7348 46.6792 25.7348 46.3285C25.7435 46.2112 25.7207 46.0937 25.6688 45.9881C25.6169 45.8826 25.5377 45.7928 25.4396 45.7281Z" fill="#407BFF"/>
<path opacity="0.7" d="M25.4396 45.7281V40.9773H24.8516V41.4745H25.1732V45.7281C25.0742 45.7921 24.9943 45.8817 24.9419 45.9874C24.8895 46.0931 24.8666 46.2109 24.8756 46.3285C24.8756 46.6792 25.07 46.9626 25.3052 46.9626C25.5404 46.9626 25.7348 46.6792 25.7348 46.3285C25.7435 46.2112 25.7207 46.0937 25.6688 45.9881C25.6169 45.8826 25.5377 45.7928 25.4396 45.7281Z" fill="white"/>
<path opacity="0.2" d="M27.1026 53.4715L25.293 52.3474V87.2698H27.1026V53.4715Z" fill="white"/>
<path d="M20.776 87.27H32.8576C32.8576 87.27 33.3088 86.6672 30.4216 86.6071C30.4216 86.6071 33.0352 84.3086 32.6392 83.6481C32.2432 82.9876 30.1696 85.4038 30.1696 85.4038C30.1696 85.4038 31.444 82.7906 30.9976 82.0413C30.5512 81.2919 29.1832 84.544 29.1832 84.544C29.1832 84.544 28.7752 82.6561 28.1992 82.4712C27.6232 82.2863 26.1976 84.6136 26.1976 84.6136C26.1976 84.6136 24.3328 79.7091 23.3536 80.0646C22.3744 80.42 23.9752 83.797 23.9752 83.797C23.9752 83.797 22.2952 82.279 21.2656 82.8171C20.236 83.3551 21.9328 85.5551 21.9328 85.5551C21.9328 85.5551 20.6872 85.9466 20.776 87.27Z" fill="#407BFF"/>
<path opacity="0.4" d="M20.776 87.27H32.8576C32.8576 87.27 33.3088 86.6672 30.4216 86.6071C30.4216 86.6071 33.0352 84.3086 32.6392 83.6481C32.2432 82.9876 30.1696 85.4038 30.1696 85.4038C30.1696 85.4038 31.444 82.7906 30.9976 82.0413C30.5512 81.2919 29.1832 84.544 29.1832 84.544C29.1832 84.544 28.7752 82.6561 28.1992 82.4712C27.6232 82.2863 26.1976 84.6136 26.1976 84.6136C26.1976 84.6136 24.3328 79.7091 23.3536 80.0646C22.3744 80.42 23.9752 83.797 23.9752 83.797C23.9752 83.797 22.2952 82.279 21.2656 82.8171C20.236 83.3551 21.9328 85.5551 21.9328 85.5551C21.9328 85.5551 20.6872 85.9466 20.776 87.27Z" fill="white"/>
<path d="M45.8394 26.4849C46.0628 26.2356 46.347 26.0486 46.6641 25.9421C46.9813 25.8356 47.3207 25.8132 47.649 25.8772C48.849 26.067 51.249 28.1613 51.0258 30.4238C50.8026 32.6864 50.1066 34.7471 49.3962 34.8384C49.3962 34.8384 48.765 34.0338 45.4482 34.1347C42.1314 34.2355 42.7338 32.1363 43.2738 30.4623C43.8138 28.7882 43.6554 25.6995 45.8394 26.4849Z" fill="#263238"/>
<path d="M50.2705 35.8062C50.9305 36.4234 53.0737 40.0574 53.3257 40.2159C53.5777 40.3744 53.6857 38.7196 53.6857 38.7196L54.8545 38.513C54.8545 38.513 55.4857 42.5216 53.7913 42.1566C51.8905 41.7434 49.3945 38.2752 49.3945 38.2752C49.3945 38.2752 49.5745 37.1512 49.6657 36.7405C49.7569 36.3297 50.2705 35.8062 50.2705 35.8062Z" fill="#407BFF"/>
<path opacity="0.4" d="M53.7913 42.1566C52.3225 41.8371 50.5009 39.6971 49.7473 38.7388C49.5241 38.4554 49.3945 38.2752 49.3945 38.2752C49.3945 38.2752 49.4905 37.682 49.5745 37.2016C49.6081 37.0191 49.6417 36.8533 49.6657 36.7405C49.7593 36.3273 50.2705 35.8062 50.2705 35.8062C50.9305 36.4234 53.0737 40.0574 53.3257 40.2159C53.5777 40.3744 53.6857 38.7196 53.6857 38.7196L54.8545 38.513C54.8545 38.513 55.4857 42.512 53.7913 42.1566Z" fill="white"/>
<path d="M49.228 38.77C48.9208 39.6923 48.6808 40.4898 48.4864 41.2055C47.9642 42.998 47.6272 44.8395 47.4808 46.7009L40.0912 45.9059C39.8968 40.6219 40.0912 37.7084 40.252 36.2578C40.432 34.7134 40.672 34.6605 40.672 34.6605C40.672 34.6605 42.352 34.5308 43.8112 34.5717C44.9398 34.631 46.0627 34.7715 47.1712 34.992C48.2224 35.1875 49.2579 35.4597 50.2696 35.8062C50.0896 36.2866 49.9264 36.7477 49.7752 37.1776C49.5736 37.7493 49.3912 38.2777 49.228 38.77Z" fill="#407BFF"/>
<path opacity="0.4" d="M50.2704 35.8063C50.0904 36.2867 49.9272 36.7478 49.776 37.1777C49.5744 37.7494 49.392 38.2778 49.2288 38.7702C48.9216 39.6925 48.6816 40.4899 48.4872 41.2056C47.9651 42.9981 47.6281 44.8396 47.4816 46.701L40.092 45.906C40.068 45.2551 40.0512 44.6426 40.0368 44.0614C40.008 42.7548 40.0032 41.6235 40.0176 40.646C40.0176 40.473 40.0176 40.3049 40.0176 40.1416C40.0512 38.5276 40.1304 37.3747 40.2096 36.5773C40.224 36.462 40.2336 36.3563 40.2456 36.2579C40.4256 34.7135 40.6656 34.6606 40.6656 34.6606C40.6656 34.6606 42.3456 34.5309 43.8048 34.5694C44.9334 34.6307 46.0562 34.772 47.1648 34.9921C48.2185 35.1873 49.2565 35.4594 50.2704 35.8063Z" fill="white"/>
<path d="M53.7911 81.9764L51.3022 82.4159C48.7918 76.1543 47.0063 70.928 45.7439 66.5903C45.0647 64.2509 44.4983 62.1686 44.0903 60.3216L44.167 67.1379V82.4927H41.7142C35.5678 53.1906 39.9646 45.8746 39.9646 45.8746L47.2799 45.2886C47.5719 46.6521 47.7779 48.0327 47.8967 49.4221L48.2278 51.8648L51.1078 66.7248L53.7911 81.9764Z" fill="#263238"/>
<path d="M40.0702 44.7004L47.647 45.1448L47.527 46.4514L39.8926 45.9902L40.0702 44.7004Z" fill="black"/>
<path d="M42.0871 84.806C42.0871 84.6474 44.0647 84.7723 44.0647 84.7723C44.0647 84.7723 45.2767 86.0069 46.4647 86.2855C47.6527 86.5641 46.9855 87.2702 45.6679 87.2702H42.3991C41.4631 87.2702 42.0487 86.4656 42.0871 84.806Z" fill="#263238"/>
<path d="M52.1672 84.806C52.1672 84.6474 54.1448 84.7723 54.1448 84.7723C54.1448 84.7723 55.3568 86.0069 56.5448 86.2855C57.7328 86.5641 57.0656 87.2702 55.748 87.2702H52.4792C51.5432 87.2702 52.1288 86.4656 52.1672 84.806Z" fill="#263238"/>
<path d="M52.4236 34.1465C52.4236 34.1465 50.3188 36.1016 50.2324 36.8125C50.146 37.5234 49.666 40.2159 49.666 40.2159H53.326C53.326 40.2159 53.8972 37.6363 54.1804 37.1776C54.4636 36.7188 55.9852 35.4363 55.9852 35.4363L52.4236 34.1465Z" fill="#407BFF"/>
<path opacity="0.7" d="M52.4236 34.1465C52.4236 34.1465 50.3188 36.1016 50.2324 36.8125C50.146 37.5234 49.666 40.2159 49.666 40.2159H53.326C53.326 40.2159 53.8972 37.6363 54.1804 37.1776C54.4636 36.7188 55.9852 35.4363 55.9852 35.4363L52.4236 34.1465Z" fill="white"/>
<path d="M41.7988 34.5861C42.1957 35.223 42.7287 35.764 43.3595 36.1702C43.9902 36.5764 44.7031 36.8376 45.4468 36.9351C47.9404 37.2209 48.8068 35.3499 48.8068 35.3499C48.8068 35.3499 45.4468 34.1465 41.7988 34.5861Z" fill="#EEC1BB"/>
<path d="M45.5204 36.5509C43.9604 35.7223 43.7324 34.836 43.7324 34.836C45.1436 34.2476 44.9204 32.2205 44.9204 32.2205L46.754 33.3349C46.6049 33.5919 46.4742 33.8592 46.3628 34.1347C45.8972 35.3356 46.4324 35.5446 46.4324 35.5446C46.5356 36.3228 45.5204 36.5509 45.5204 36.5509Z" fill="#EEC1BB"/>
<path d="M47.7451 27.4047C49.4947 27.9571 49.7611 29.086 49.3195 30.9186C48.7675 33.2243 47.7619 34.6678 45.7195 33.4933C42.9595 31.9009 44.8387 26.4848 47.7451 27.4047Z" fill="#EEC1BB"/>
<path d="M48.219 30.4622C48.2765 30.7686 48.3708 31.067 48.4998 31.3508C48.4256 31.4066 48.3376 31.4408 48.2453 31.4497C48.1529 31.4586 48.06 31.4418 47.9766 31.4013L48.219 30.4622Z" fill="#D4827D"/>
<path d="M47.1943 29.9817C47.1535 30.1258 47.0407 30.2219 46.9543 30.1931C46.8679 30.1642 46.8127 30.0249 46.8535 29.8784C46.8943 29.7319 47.0095 29.6382 47.0935 29.6671C47.1775 29.6959 47.2375 29.8352 47.1943 29.9817Z" fill="#263238"/>
<path d="M49.0035 30.4741C48.9603 30.6182 48.8475 30.7143 48.7515 30.6854C48.6555 30.6566 48.6099 30.5173 48.6531 30.3732C48.6963 30.2291 48.8067 30.133 48.9051 30.1619C49.0035 30.1907 49.0443 30.33 49.0035 30.4741Z" fill="#263238"/>
<path d="M54.7875 38.5252L54.6963 37.7542C54.6963 37.7542 54.8739 37.2738 54.7875 37.0769C54.6243 36.6854 53.5875 36.2026 53.4315 36.1161C53.2755 36.0297 52.5435 37.1946 52.6395 37.4299C52.7355 37.6653 53.9379 38.2057 53.9379 38.2057V38.6861L54.7875 38.5252Z" fill="#EEC1BB"/>
<path d="M40.8914 34.6463C41.2298 34.7544 41.4986 35.8064 40.613 37.5933C40.613 37.5933 39.413 40.305 39.653 40.7589C39.9242 41.3089 42.3434 41.7581 42.3434 41.7581L42.1514 43.3097C42.1514 43.3097 38.9426 43.754 38.0258 41.7509C37.109 39.7478 39.749 34.2764 40.8914 34.6463Z" fill="#407BFF"/>
<path opacity="0.4" d="M40.8914 34.6463C41.2298 34.7544 41.4986 35.8064 40.613 37.5933C40.613 37.5933 39.413 40.305 39.653 40.7589C39.9242 41.3089 42.3434 41.7581 42.3434 41.7581L42.1514 43.3097C42.1514 43.3097 38.9426 43.754 38.0258 41.7509C37.109 39.7478 39.749 34.2764 40.8914 34.6463Z" fill="white"/>
</svg>
